<svg width="110" height="26" viewBox="0 0 110 26" fill="none" xmlns="http://www.w3.org/2000/svg">
<circle cx="13" cy="13" r="13" fill="#C4C4C4" fill-opacity="0.5"/>
<path fill-rule="evenodd" clip-rule="evenodd" d="M9.70172 5.04829C8.8501 5.087 8.26863 5.22215 7.75974 5.42002C7.23357 5.62431 6.78768 5.89803 6.34294 6.34276C5.89791 6.78749 5.62447 7.23351 5.42017 7.75967C5.2223 8.26869 5.08701 8.85014 5.04829 9.7016C5.00929 10.5549 5 10.8272 5 13C5 15.1728 5.00929 15.4449 5.04829 16.2984C5.08701 17.1499 5.2223 17.7313 5.42017 18.24C5.62447 18.7662 5.89791 19.2125 6.34294 19.6571C6.78768 20.102 7.23357 20.3754 7.75974 20.58C8.26863 20.7779 8.8501 20.913 9.70172 20.9517C10.5551 20.9907 10.8274 21 13.0001 21C15.1729 21 15.4452 20.9907 16.2986 20.9517C17.15 20.913 17.7315 20.7779 18.2407 20.58C18.7664 20.3754 19.2127 20.102 19.6575 19.6571C20.1022 19.2125 20.3755 18.7662 20.5801 18.24C20.7778 17.7313 20.9133 17.1499 20.952 16.2984C20.991 15.4449 21 15.1728 21 13C21 10.8272 20.991 10.5549 20.952 9.7016C20.9133 8.85014 20.7778 8.26869 20.5801 7.75967C20.3755 7.23351 20.1022 6.78749 19.6575 6.34276C19.2127 5.89803 18.7664 5.62431 18.2407 5.42002C17.7315 5.22215 17.15 5.087 16.2986 5.04829C15.4452 5.00943 15.1729 5 13.0001 5C10.8274 5 10.5551 5.00943 9.70172 5.04829ZM9.76747 19.5116C8.98742 19.4761 8.56382 19.3461 8.28209 19.2364C7.9085 19.091 7.6422 18.9177 7.36218 18.6378C7.08216 18.358 6.90886 18.0915 6.76357 17.7181C6.65399 17.4362 6.52384 17.0126 6.48812 16.2326C6.44969 15.389 6.44141 15.1359 6.44141 12.9999C6.44141 10.8637 6.44969 10.6108 6.48812 9.76709C6.52384 8.9872 6.65399 8.56362 6.76357 8.28175C6.90886 7.90831 7.08216 7.64173 7.36218 7.36186C7.6422 7.08199 7.9085 6.90841 8.28209 6.76355C8.56382 6.65398 8.98742 6.52369 9.76747 6.48797C10.611 6.44954 10.8641 6.4414 13.0001 6.4414C15.1361 6.4414 15.3891 6.44954 16.233 6.48797C17.0128 6.52369 17.4364 6.65398 17.7184 6.76355C18.0918 6.90841 18.3583 7.08199 18.6382 7.36186C18.9182 7.64173 19.0913 7.90831 19.2366 8.28175C19.3462 8.56362 19.4765 8.9872 19.5122 9.76709C19.5507 10.6108 19.5585 10.8637 19.5585 12.9999C19.5585 15.1359 19.5507 15.389 19.5122 16.2326C19.4765 17.0126 19.3462 17.4362 19.2366 17.7181C19.0913 18.0915 18.9182 18.358 18.6382 18.6378C18.3583 18.9177 18.0918 19.091 17.7184 19.2364C17.4364 19.3461 17.0128 19.4761 16.233 19.5116C15.3894 19.5503 15.1364 19.5583 13.0001 19.5583C10.8641 19.5583 10.611 19.5503 9.76747 19.5116ZM16.3105 8.72943C16.3105 9.25945 16.7403 9.68947 17.2706 9.68947C17.8008 9.68947 18.2305 9.25945 18.2305 8.72943C18.2305 8.19913 17.8008 7.76954 17.2706 7.76954C16.7403 7.76954 16.3105 8.19913 16.3105 8.72943ZM8.8916 13.0002C8.8916 15.2691 10.731 17.1082 12.9999 17.1082C15.2689 17.1082 17.108 15.2691 17.108 13.0002C17.108 10.7312 15.2689 8.89203 12.9999 8.89203C10.731 8.89203 8.8916 10.7312 8.8916 13.0002ZM10.334 13.0001C10.334 11.5273 11.5278 10.3334 13.0006 10.3334C14.4734 10.3334 15.6673 11.5273 15.6673 13.0001C15.6673 14.473 14.4734 15.6668 13.0006 15.6668C11.5278 15.6668 10.334 14.473 10.334 13.0001Z" fill="white"/>
<path d="M40.9375 7.625V19H39.4297V7.625H40.9375ZM44.9062 12.3516V19H43.4609V10.5469H44.8281L44.9062 12.3516ZM44.5625 14.4531L43.9609 14.4297C43.9661 13.8516 44.0521 13.3177 44.2188 12.8281C44.3854 12.3333 44.6198 11.9036 44.9219 11.5391C45.224 11.1745 45.5833 10.8932 46 10.6953C46.4219 10.4922 46.888 10.3906 47.3984 10.3906C47.8151 10.3906 48.1901 10.4479 48.5234 10.5625C48.8568 10.6719 49.1406 10.849 49.375 11.0938C49.6146 11.3385 49.7969 11.6562 49.9219 12.0469C50.0469 12.4323 50.1094 12.9036 50.1094 13.4609V19H48.6562V13.4453C48.6562 13.0026 48.5911 12.6484 48.4609 12.3828C48.3307 12.112 48.1406 11.9167 47.8906 11.7969C47.6406 11.6719 47.3333 11.6094 46.9688 11.6094C46.6094 11.6094 46.2812 11.6849 45.9844 11.8359C45.6927 11.987 45.4401 12.1953 45.2266 12.4609C45.0182 12.7266 44.8542 13.0312 44.7344 13.375C44.6198 13.7135 44.5625 14.0729 44.5625 14.4531ZM57.2266 16.7578C57.2266 16.5495 57.1797 16.3568 57.0859 16.1797C56.9974 15.9974 56.8125 15.8333 56.5312 15.6875C56.2552 15.5365 55.8385 15.4062 55.2812 15.2969C54.8125 15.1979 54.388 15.0807 54.0078 14.9453C53.6328 14.8099 53.3125 14.6458 53.0469 14.4531C52.7865 14.2604 52.5859 14.0339 52.4453 13.7734C52.3047 13.513 52.2344 13.2083 52.2344 12.8594C52.2344 12.526 52.3073 12.2109 52.4531 11.9141C52.6042 11.6172 52.8151 11.3542 53.0859 11.125C53.362 10.8958 53.6927 10.7161 54.0781 10.5859C54.4635 10.4557 54.8932 10.3906 55.3672 10.3906C56.0443 10.3906 56.6224 10.5104 57.1016 10.75C57.5807 10.9896 57.9479 11.3099 58.2031 11.7109C58.4583 12.1068 58.5859 12.5469 58.5859 13.0312H57.1406C57.1406 12.7969 57.0703 12.5703 56.9297 12.3516C56.7943 12.1276 56.5938 11.9427 56.3281 11.7969C56.0677 11.651 55.7474 11.5781 55.3672 11.5781C54.9661 11.5781 54.6406 11.6406 54.3906 11.7656C54.1458 11.8854 53.9661 12.0391 53.8516 12.2266C53.7422 12.4141 53.6875 12.612 53.6875 12.8203C53.6875 12.9766 53.7135 13.1172 53.7656 13.2422C53.8229 13.362 53.9219 13.474 54.0625 13.5781C54.2031 13.6771 54.401 13.7708 54.6562 13.8594C54.9115 13.9479 55.237 14.0365 55.6328 14.125C56.3255 14.2812 56.8958 14.4688 57.3438 14.6875C57.7917 14.9062 58.125 15.1745 58.3438 15.4922C58.5625 15.8099 58.6719 16.1953 58.6719 16.6484C58.6719 17.0182 58.5938 17.3568 58.4375 17.6641C58.2865 17.9714 58.0651 18.237 57.7734 18.4609C57.487 18.6797 57.1432 18.8516 56.7422 18.9766C56.3464 19.0964 55.901 19.1562 55.4062 19.1562C54.6615 19.1562 54.0312 19.0234 53.5156 18.7578C53 18.4922 52.6094 18.1484 52.3438 17.7266C52.0781 17.3047 51.9453 16.8594 51.9453 16.3906H53.3984C53.4193 16.7865 53.5339 17.1016 53.7422 17.3359C53.9505 17.5651 54.2057 17.7292 54.5078 17.8281C54.8099 17.9219 55.1094 17.9688 55.4062 17.9688C55.8021 17.9688 56.1328 17.9167 56.3984 17.8125C56.6693 17.7083 56.875 17.5651 57.0156 17.3828C57.1562 17.2005 57.2266 16.9922 57.2266 16.7578ZM64.1094 10.5469V11.6562H59.5391V10.5469H64.1094ZM61.0859 8.49219H62.5312V16.9062C62.5312 17.1927 62.5755 17.4089 62.6641 17.5547C62.7526 17.7005 62.8672 17.7969 63.0078 17.8438C63.1484 17.8906 63.2995 17.9141 63.4609 17.9141C63.5807 17.9141 63.7057 17.9036 63.8359 17.8828C63.9714 17.8568 64.0729 17.8359 64.1406 17.8203L64.1484 19C64.0339 19.0365 63.8828 19.0703 63.6953 19.1016C63.513 19.138 63.2917 19.1562 63.0312 19.1562C62.6771 19.1562 62.3516 19.0859 62.0547 18.9453C61.7578 18.8047 61.5208 18.5703 61.3438 18.2422C61.1719 17.9089 61.0859 17.4609 61.0859 16.8984V8.49219ZM70.7891 17.5547V13.2031C70.7891 12.8698 70.7214 12.5807 70.5859 12.3359C70.4557 12.0859 70.2578 11.8932 69.9922 11.7578C69.7266 11.6224 69.3984 11.5547 69.0078 11.5547C68.6432 11.5547 68.3229 11.6172 68.0469 11.7422C67.776 11.8672 67.5625 12.0312 67.4062 12.2344C67.2552 12.4375 67.1797 12.6562 67.1797 12.8906H65.7344C65.7344 12.5885 65.8125 12.2891 65.9688 11.9922C66.125 11.6953 66.349 11.4271 66.6406 11.1875C66.9375 10.9427 67.2917 10.75 67.7031 10.6094C68.1198 10.4635 68.5833 10.3906 69.0938 10.3906C69.7083 10.3906 70.25 10.4948 70.7188 10.7031C71.1927 10.9115 71.5625 11.2266 71.8281 11.6484C72.099 12.0651 72.2344 12.5885 72.2344 13.2188V17.1562C72.2344 17.4375 72.2578 17.737 72.3047 18.0547C72.3568 18.3724 72.4323 18.6458 72.5312 18.875V19H71.0234C70.9505 18.8333 70.8932 18.612 70.8516 18.3359C70.8099 18.0547 70.7891 17.7943 70.7891 17.5547ZM71.0391 13.875L71.0547 14.8906H69.5938C69.1823 14.8906 68.8151 14.9245 68.4922 14.9922C68.1693 15.0547 67.8984 15.151 67.6797 15.2812C67.4609 15.4115 67.2943 15.5755 67.1797 15.7734C67.0651 15.9661 67.0078 16.1927 67.0078 16.4531C67.0078 16.7188 67.0677 16.9609 67.1875 17.1797C67.3073 17.3984 67.487 17.5729 67.7266 17.7031C67.9714 17.8281 68.2708 17.8906 68.625 17.8906C69.0677 17.8906 69.4583 17.7969 69.7969 17.6094C70.1354 17.4219 70.4036 17.1927 70.6016 16.9219C70.8047 16.651 70.9141 16.388 70.9297 16.1328L71.5469 16.8281C71.5104 17.0469 71.4115 17.2891 71.25 17.5547C71.0885 17.8203 70.8724 18.0755 70.6016 18.3203C70.3359 18.5599 70.0182 18.7604 69.6484 18.9219C69.2839 19.0781 68.8724 19.1562 68.4141 19.1562C67.8411 19.1562 67.3385 19.0443 66.9062 18.8203C66.4792 18.5964 66.1458 18.2969 65.9062 17.9219C65.6719 17.5417 65.5547 17.1172 65.5547 16.6484C65.5547 16.1953 65.6432 15.7969 65.8203 15.4531C65.9974 15.1042 66.2526 14.8151 66.5859 14.5859C66.9193 14.3516 67.3203 14.1745 67.7891 14.0547C68.2578 13.9349 68.7812 13.875 69.3594 13.875H71.0391ZM79.9844 10.5469H81.2969V18.8203C81.2969 19.5651 81.1458 20.2005 80.8438 20.7266C80.5417 21.2526 80.1198 21.651 79.5781 21.9219C79.0417 22.1979 78.4219 22.3359 77.7188 22.3359C77.4271 22.3359 77.0833 22.2891 76.6875 22.1953C76.2969 22.1068 75.9115 21.9531 75.5312 21.7344C75.1562 21.5208 74.8411 21.2318 74.5859 20.8672L75.3438 20.0078C75.6979 20.4349 76.0677 20.7318 76.4531 20.8984C76.8438 21.0651 77.2292 21.1484 77.6094 21.1484C78.0677 21.1484 78.4635 21.0625 78.7969 20.8906C79.1302 20.7188 79.388 20.4635 79.5703 20.125C79.7578 19.7917 79.8516 19.3802 79.8516 18.8906V12.4062L79.9844 10.5469ZM74.1641 14.8672V14.7031C74.1641 14.0573 74.2396 13.4714 74.3906 12.9453C74.5469 12.4141 74.7682 11.9583 75.0547 11.5781C75.3464 11.1979 75.6979 10.9062 76.1094 10.7031C76.5208 10.4948 76.9844 10.3906 77.5 10.3906C78.0312 10.3906 78.4948 10.4844 78.8906 10.6719C79.2917 10.8542 79.6302 11.1224 79.9062 11.4766C80.1875 11.8255 80.4089 12.2474 80.5703 12.7422C80.7318 13.237 80.8438 13.7969 80.9062 14.4219V15.1406C80.849 15.7604 80.737 16.3177 80.5703 16.8125C80.4089 17.3073 80.1875 17.7292 79.9062 18.0781C79.6302 18.4271 79.2917 18.6953 78.8906 18.8828C78.4896 19.0651 78.0208 19.1562 77.4844 19.1562C76.9792 19.1562 76.5208 19.0495 76.1094 18.8359C75.7031 18.6224 75.3542 18.3229 75.0625 17.9375C74.7708 17.5521 74.5469 17.099 74.3906 16.5781C74.2396 16.0521 74.1641 15.4818 74.1641 14.8672ZM75.6094 14.7031V14.8672C75.6094 15.2891 75.651 15.6849 75.7344 16.0547C75.8229 16.4245 75.9557 16.75 76.1328 17.0312C76.3151 17.3125 76.5469 17.5339 76.8281 17.6953C77.1094 17.8516 77.4453 17.9297 77.8359 17.9297C78.3151 17.9297 78.7109 17.8281 79.0234 17.625C79.3359 17.4219 79.5833 17.1536 79.7656 16.8203C79.9531 16.487 80.099 16.125 80.2031 15.7344V13.8516C80.1458 13.5651 80.0573 13.2891 79.9375 13.0234C79.8229 12.7526 79.6719 12.513 79.4844 12.3047C79.3021 12.0911 79.0755 11.9219 78.8047 11.7969C78.5339 11.6719 78.2161 11.6094 77.8516 11.6094C77.4557 11.6094 77.1146 11.6927 76.8281 11.8594C76.5469 12.0208 76.3151 12.2448 76.1328 12.5312C75.9557 12.8125 75.8229 13.1406 75.7344 13.5156C75.651 13.8854 75.6094 14.2812 75.6094 14.7031ZM84.9375 11.875V19H83.4922V10.5469H84.8984L84.9375 11.875ZM87.5781 10.5L87.5703 11.8438C87.4505 11.8177 87.3359 11.8021 87.2266 11.7969C87.1224 11.7865 87.0026 11.7812 86.8672 11.7812C86.5339 11.7812 86.2396 11.8333 85.9844 11.9375C85.7292 12.0417 85.513 12.1875 85.3359 12.375C85.1589 12.5625 85.0182 12.7865 84.9141 13.0469C84.8151 13.3021 84.75 13.5833 84.7188 13.8906L84.3125 14.125C84.3125 13.6146 84.362 13.1354 84.4609 12.6875C84.5651 12.2396 84.724 11.8438 84.9375 11.5C85.151 11.151 85.4219 10.8802 85.75 10.6875C86.0833 10.4896 86.4792 10.3906 86.9375 10.3906C87.0417 10.3906 87.1615 10.4036 87.2969 10.4297C87.4323 10.4505 87.526 10.474 87.5781 10.5ZM93.5859 17.5547V13.2031C93.5859 12.8698 93.5182 12.5807 93.3828 12.3359C93.2526 12.0859 93.0547 11.8932 92.7891 11.7578C92.5234 11.6224 92.1953 11.5547 91.8047 11.5547C91.4401 11.5547 91.1198 11.6172 90.8438 11.7422C90.5729 11.8672 90.3594 12.0312 90.2031 12.2344C90.0521 12.4375 89.9766 12.6562 89.9766 12.8906H88.5312C88.5312 12.5885 88.6094 12.2891 88.7656 11.9922C88.9219 11.6953 89.1458 11.4271 89.4375 11.1875C89.7344 10.9427 90.0885 10.75 90.5 10.6094C90.9167 10.4635 91.3802 10.3906 91.8906 10.3906C92.5052 10.3906 93.0469 10.4948 93.5156 10.7031C93.9896 10.9115 94.3594 11.2266 94.625 11.6484C94.8958 12.0651 95.0312 12.5885 95.0312 13.2188V17.1562C95.0312 17.4375 95.0547 17.737 95.1016 18.0547C95.1536 18.3724 95.2292 18.6458 95.3281 18.875V19H93.8203C93.7474 18.8333 93.6901 18.612 93.6484 18.3359C93.6068 18.0547 93.5859 17.7943 93.5859 17.5547ZM93.8359 13.875L93.8516 14.8906H92.3906C91.9792 14.8906 91.612 14.9245 91.2891 14.9922C90.9661 15.0547 90.6953 15.151 90.4766 15.2812C90.2578 15.4115 90.0911 15.5755 89.9766 15.7734C89.862 15.9661 89.8047 16.1927 89.8047 16.4531C89.8047 16.7188 89.8646 16.9609 89.9844 17.1797C90.1042 17.3984 90.2839 17.5729 90.5234 17.7031C90.7682 17.8281 91.0677 17.8906 91.4219 17.8906C91.8646 17.8906 92.2552 17.7969 92.5938 17.6094C92.9323 17.4219 93.2005 17.1927 93.3984 16.9219C93.6016 16.651 93.7109 16.388 93.7266 16.1328L94.3438 16.8281C94.3073 17.0469 94.2083 17.2891 94.0469 17.5547C93.8854 17.8203 93.6693 18.0755 93.3984 18.3203C93.1328 18.5599 92.8151 18.7604 92.4453 18.9219C92.0807 19.0781 91.6693 19.1562 91.2109 19.1562C90.638 19.1562 90.1354 19.0443 89.7031 18.8203C89.276 18.5964 88.9427 18.2969 88.7031 17.9219C88.4688 17.5417 88.3516 17.1172 88.3516 16.6484C88.3516 16.1953 88.4401 15.7969 88.6172 15.4531C88.7943 15.1042 89.0495 14.8151 89.3828 14.5859C89.7161 14.3516 90.1172 14.1745 90.5859 14.0547C91.0547 13.9349 91.5781 13.875 92.1562 13.875H93.8359ZM98.7422 12.2266V19H97.2891V10.5469H98.6641L98.7422 12.2266ZM98.4453 14.4531L97.7734 14.4297C97.7786 13.8516 97.8542 13.3177 98 12.8281C98.1458 12.3333 98.362 11.9036 98.6484 11.5391C98.9349 11.1745 99.2917 10.8932 99.7188 10.6953C100.146 10.4922 100.641 10.3906 101.203 10.3906C101.599 10.3906 101.964 10.4479 102.297 10.5625C102.63 10.6719 102.919 10.8464 103.164 11.0859C103.409 11.3255 103.599 11.6328 103.734 12.0078C103.87 12.3828 103.938 12.8359 103.938 13.3672V19H102.492V13.4375C102.492 12.9948 102.417 12.6406 102.266 12.375C102.12 12.1094 101.911 11.9167 101.641 11.7969C101.37 11.6719 101.052 11.6094 100.688 11.6094C100.26 11.6094 99.9036 11.6849 99.6172 11.8359C99.3307 11.987 99.1016 12.1953 98.9297 12.4609C98.7578 12.7266 98.6328 13.0312 98.5547 13.375C98.4818 13.7135 98.4453 14.0729 98.4453 14.4531ZM103.922 13.6562L102.953 13.9531C102.958 13.4896 103.034 13.0443 103.18 12.6172C103.331 12.1901 103.547 11.8099 103.828 11.4766C104.115 11.1432 104.466 10.8802 104.883 10.6875C105.299 10.4896 105.776 10.3906 106.312 10.3906C106.766 10.3906 107.167 10.4505 107.516 10.5703C107.87 10.6901 108.167 10.875 108.406 11.125C108.651 11.3698 108.836 11.6849 108.961 12.0703C109.086 12.4557 109.148 12.9141 109.148 13.4453V19H107.695V13.4297C107.695 12.9557 107.62 12.5885 107.469 12.3281C107.323 12.0625 107.115 11.8776 106.844 11.7734C106.578 11.6641 106.26 11.6094 105.891 11.6094C105.573 11.6094 105.292 11.6641 105.047 11.7734C104.802 11.8828 104.596 12.0339 104.43 12.2266C104.263 12.4141 104.135 12.6302 104.047 12.875C103.964 13.1198 103.922 13.3802 103.922 13.6562Z" fill="white"/>
</svg>
