<svg width="89" height="26" viewBox="0 0 89 26" fill="none" xmlns="http://www.w3.org/2000/svg">
<circle cx="13" cy="13" r="13" fill="#C4C4C4" fill-opacity="0.5"/>
<path d="M43.5234 7.625V19H42.0391V7.625H43.5234ZM47.1797 7.625V8.85938H38.3906V7.625H47.1797ZM50.3359 17.5L52.5078 10.5469H53.4609L53.2734 11.9297L51.0625 19H50.1328L50.3359 17.5ZM48.875 10.5469L50.7266 17.5781L50.8594 19H49.8828L47.4297 10.5469H48.875ZM55.5391 17.5234L57.3047 10.5469H58.7422L56.2891 19H55.3203L55.5391 17.5234ZM53.6719 10.5469L55.7969 17.3828L56.0391 19H55.1172L52.8438 11.9141L52.6562 10.5469H53.6719ZM61.7969 10.5469V19H60.3438V10.5469H61.7969ZM60.2344 8.30469C60.2344 8.07031 60.3047 7.8724 60.4453 7.71094C60.5911 7.54948 60.8047 7.46875 61.0859 7.46875C61.362 7.46875 61.5729 7.54948 61.7188 7.71094C61.8698 7.8724 61.9453 8.07031 61.9453 8.30469C61.9453 8.52865 61.8698 8.72135 61.7188 8.88281C61.5729 9.03906 61.362 9.11719 61.0859 9.11719C60.8047 9.11719 60.5911 9.03906 60.4453 8.88281C60.3047 8.72135 60.2344 8.52865 60.2344 8.30469ZM67.6562 10.5469V11.6562H63.0859V10.5469H67.6562ZM64.6328 8.49219H66.0781V16.9062C66.0781 17.1927 66.1224 17.4089 66.2109 17.5547C66.2995 17.7005 66.4141 17.7969 66.5547 17.8438C66.6953 17.8906 66.8464 17.9141 67.0078 17.9141C67.1276 17.9141 67.2526 17.9036 67.3828 17.8828C67.5182 17.8568 67.6198 17.8359 67.6875 17.8203L67.6953 19C67.5807 19.0365 67.4297 19.0703 67.2422 19.1016C67.0599 19.138 66.8385 19.1562 66.5781 19.1562C66.224 19.1562 65.8984 19.0859 65.6016 18.9453C65.3047 18.8047 65.0677 18.5703 64.8906 18.2422C64.7188 17.9089 64.6328 17.4609 64.6328 16.8984V8.49219ZM72.8906 10.5469V11.6562H68.3203V10.5469H72.8906ZM69.8672 8.49219H71.3125V16.9062C71.3125 17.1927 71.3568 17.4089 71.4453 17.5547C71.5339 17.7005 71.6484 17.7969 71.7891 17.8438C71.9297 17.8906 72.0807 17.9141 72.2422 17.9141C72.362 17.9141 72.487 17.9036 72.6172 17.8828C72.7526 17.8568 72.8542 17.8359 72.9219 17.8203L72.9297 19C72.8151 19.0365 72.6641 19.0703 72.4766 19.1016C72.2943 19.138 72.0729 19.1562 71.8125 19.1562C71.4583 19.1562 71.1328 19.0859 70.8359 18.9453C70.5391 18.8047 70.3021 18.5703 70.125 18.2422C69.9531 17.9089 69.8672 17.4609 69.8672 16.8984V8.49219ZM78.0938 19.1562C77.5052 19.1562 76.9714 19.0573 76.4922 18.8594C76.0182 18.6562 75.6094 18.3724 75.2656 18.0078C74.9271 17.6432 74.6667 17.2109 74.4844 16.7109C74.3021 16.2109 74.2109 15.6641 74.2109 15.0703V14.7422C74.2109 14.0547 74.3125 13.4427 74.5156 12.9062C74.7188 12.3646 74.9948 11.9062 75.3438 11.5312C75.6927 11.1562 76.0885 10.8724 76.5312 10.6797C76.974 10.487 77.4323 10.3906 77.9062 10.3906C78.5104 10.3906 79.0312 10.4948 79.4688 10.7031C79.9115 10.9115 80.2734 11.2031 80.5547 11.5781C80.8359 11.9479 81.0443 12.3854 81.1797 12.8906C81.3151 13.3906 81.3828 13.9375 81.3828 14.5312V15.1797H75.0703V14H79.9375V13.8906C79.9167 13.5156 79.8385 13.151 79.7031 12.7969C79.5729 12.4427 79.3646 12.151 79.0781 11.9219C78.7917 11.6927 78.401 11.5781 77.9062 11.5781C77.5781 11.5781 77.276 11.6484 77 11.7891C76.724 11.9245 76.487 12.1276 76.2891 12.3984C76.0911 12.6693 75.9375 13 75.8281 13.3906C75.7188 13.7812 75.6641 14.2318 75.6641 14.7422V15.0703C75.6641 15.4714 75.7188 15.849 75.8281 16.2031C75.9427 16.5521 76.1068 16.8594 76.3203 17.125C76.5391 17.3906 76.8021 17.599 77.1094 17.75C77.4219 17.901 77.776 17.9766 78.1719 17.9766C78.6823 17.9766 79.1146 17.8724 79.4688 17.6641C79.8229 17.4557 80.1328 17.1771 80.3984 16.8281L81.2734 17.5234C81.0911 17.7995 80.8594 18.0625 80.5781 18.3125C80.2969 18.5625 79.9505 18.7656 79.5391 18.9219C79.1328 19.0781 78.651 19.1562 78.0938 19.1562ZM84.5156 11.875V19H83.0703V10.5469H84.4766L84.5156 11.875ZM87.1562 10.5L87.1484 11.8438C87.0286 11.8177 86.9141 11.8021 86.8047 11.7969C86.7005 11.7865 86.5807 11.7812 86.4453 11.7812C86.112 11.7812 85.8177 11.8333 85.5625 11.9375C85.3073 12.0417 85.0911 12.1875 84.9141 12.375C84.737 12.5625 84.5964 12.7865 84.4922 13.0469C84.3932 13.3021 84.3281 13.5833 84.2969 13.8906L83.8906 14.125C83.8906 13.6146 83.9401 13.1354 84.0391 12.6875C84.1432 12.2396 84.3021 11.8438 84.5156 11.5C84.7292 11.151 85 10.8802 85.3281 10.6875C85.6615 10.4896 86.0573 10.3906 86.5156 10.3906C86.6198 10.3906 86.7396 10.4036 86.875 10.4297C87.0104 10.4505 87.1042 10.474 87.1562 10.5Z" fill="white"/>
<path fill-rule="evenodd" clip-rule="evenodd" d="M21 7.65713C20.4114 7.93821 19.7787 8.12837 19.1147 8.21377C19.7923 7.77623 20.313 7.08372 20.5579 6.25827C19.9237 6.6633 19.2211 6.95752 18.4734 7.11604C17.8747 6.42906 17.0216 6 16.0774 6C14.2646 6 12.7949 7.58227 12.7949 9.53414C12.7949 9.81108 12.8238 10.0809 12.8798 10.3397C10.1517 10.1923 7.73296 8.7851 6.11392 6.6467C5.83136 7.16877 5.66944 7.77589 5.66944 8.42363C5.66944 9.64979 6.24896 10.7316 7.12976 11.3655C6.59168 11.347 6.08544 11.1882 5.64304 10.9235C5.64272 10.938 5.64272 10.9529 5.64272 10.9677C5.64272 12.6802 6.77424 14.1086 8.27584 14.4334C8.00048 14.5142 7.7104 14.5576 7.41104 14.5576C7.19952 14.5576 6.99392 14.5353 6.79344 14.4939C7.2112 15.898 8.42336 16.92 9.85984 16.9485C8.73648 17.8964 7.32096 18.4615 5.78304 18.4615C5.51808 18.4615 5.2568 18.4447 5 18.412C6.45264 19.4148 8.17824 20 10.0318 20C16.0698 20 19.3715 14.6144 19.3715 9.94401C19.3715 9.79068 19.3683 9.63821 19.3621 9.4866C20.0035 8.98839 20.56 8.36589 21 7.65713Z" fill="white"/>
</svg>
