<svg width="101" height="26" viewBox="0 0 101 26" fill="none" xmlns="http://www.w3.org/2000/svg">
<circle cx="13" cy="13" r="13" fill="#C4C4C4" fill-opacity="0.5"/>
<path d="M39.8438 8.625L42.7969 14.3359L45.7578 8.625H47.4688L43.5469 15.75V20H42.0391V15.75L38.1172 8.625H39.8438ZM47.8125 15.8672V15.6875C47.8125 15.0781 47.901 14.513 48.0781 13.9922C48.2552 13.4661 48.5104 13.0104 48.8438 12.625C49.1771 12.2344 49.5807 11.9323 50.0547 11.7188C50.5286 11.5 51.0599 11.3906 51.6484 11.3906C52.2422 11.3906 52.776 11.5 53.25 11.7188C53.7292 11.9323 54.1354 12.2344 54.4688 12.625C54.8073 13.0104 55.0651 13.4661 55.2422 13.9922C55.4193 14.513 55.5078 15.0781 55.5078 15.6875V15.8672C55.5078 16.4766 55.4193 17.0417 55.2422 17.5625C55.0651 18.0833 54.8073 18.5391 54.4688 18.9297C54.1354 19.3151 53.7318 19.6172 53.2578 19.8359C52.7891 20.0495 52.2578 20.1562 51.6641 20.1562C51.0703 20.1562 50.5365 20.0495 50.0625 19.8359C49.5885 19.6172 49.1823 19.3151 48.8438 18.9297C48.5104 18.5391 48.2552 18.0833 48.0781 17.5625C47.901 17.0417 47.8125 16.4766 47.8125 15.8672ZM49.2578 15.6875V15.8672C49.2578 16.2891 49.3073 16.6875 49.4062 17.0625C49.5052 17.4323 49.6536 17.7604 49.8516 18.0469C50.0547 18.3333 50.3073 18.5599 50.6094 18.7266C50.9115 18.888 51.263 18.9688 51.6641 18.9688C52.0599 18.9688 52.4062 18.888 52.7031 18.7266C53.0052 18.5599 53.2552 18.3333 53.4531 18.0469C53.651 17.7604 53.7995 17.4323 53.8984 17.0625C54.0026 16.6875 54.0547 16.2891 54.0547 15.8672V15.6875C54.0547 15.2708 54.0026 14.8776 53.8984 14.5078C53.7995 14.1328 53.6484 13.8021 53.4453 13.5156C53.2474 13.224 52.9974 12.9948 52.6953 12.8281C52.3984 12.6615 52.0495 12.5781 51.6484 12.5781C51.2526 12.5781 50.9036 12.6615 50.6016 12.8281C50.3047 12.9948 50.0547 13.224 49.8516 13.5156C49.6536 13.8021 49.5052 14.1328 49.4062 14.5078C49.3073 14.8776 49.2578 15.2708 49.2578 15.6875ZM62.4922 18.0469V11.5469H63.9453V20H62.5625L62.4922 18.0469ZM62.7656 16.2656L63.3672 16.25C63.3672 16.8125 63.3073 17.3333 63.1875 17.8125C63.0729 18.2865 62.8854 18.6979 62.625 19.0469C62.3646 19.3958 62.0234 19.6693 61.6016 19.8672C61.1797 20.0599 60.6667 20.1562 60.0625 20.1562C59.651 20.1562 59.2734 20.0964 58.9297 19.9766C58.5911 19.8568 58.2995 19.6719 58.0547 19.4219C57.8099 19.1719 57.6198 18.8464 57.4844 18.4453C57.3542 18.0443 57.2891 17.5625 57.2891 17V11.5469H58.7344V17.0156C58.7344 17.3958 58.776 17.7109 58.8594 17.9609C58.9479 18.2057 59.0651 18.401 59.2109 18.5469C59.362 18.6875 59.5286 18.7865 59.7109 18.8438C59.8984 18.901 60.0911 18.9297 60.2891 18.9297C60.9036 18.9297 61.3906 18.8125 61.75 18.5781C62.1094 18.3385 62.3672 18.0182 62.5234 17.6172C62.6849 17.2109 62.7656 16.7604 62.7656 16.2656ZM70.5703 8.625V20H69.0859V8.625H70.5703ZM74.2266 8.625V9.85938H65.4375V8.625H74.2266ZM80.1172 18.0469V11.5469H81.5703V20H80.1875L80.1172 18.0469ZM80.3906 16.2656L80.9922 16.25C80.9922 16.8125 80.9323 17.3333 80.8125 17.8125C80.6979 18.2865 80.5104 18.6979 80.25 19.0469C79.9896 19.3958 79.6484 19.6693 79.2266 19.8672C78.8047 20.0599 78.2917 20.1562 77.6875 20.1562C77.276 20.1562 76.8984 20.0964 76.5547 19.9766C76.2161 19.8568 75.9245 19.6719 75.6797 19.4219C75.4349 19.1719 75.2448 18.8464 75.1094 18.4453C74.9792 18.0443 74.9141 17.5625 74.9141 17V11.5469H76.3594V17.0156C76.3594 17.3958 76.401 17.7109 76.4844 17.9609C76.5729 18.2057 76.6901 18.401 76.8359 18.5469C76.987 18.6875 77.1536 18.7865 77.3359 18.8438C77.5234 18.901 77.7161 18.9297 77.9141 18.9297C78.5286 18.9297 79.0156 18.8125 79.375 18.5781C79.7344 18.3385 79.9922 18.0182 80.1484 17.6172C80.3099 17.2109 80.3906 16.7604 80.3906 16.2656ZM83.7656 8H85.2188V18.3594L85.0938 20H83.7656V8ZM90.9297 15.7031V15.8672C90.9297 16.4818 90.8568 17.0521 90.7109 17.5781C90.5651 18.099 90.3516 18.5521 90.0703 18.9375C89.7891 19.3229 89.4453 19.6224 89.0391 19.8359C88.6328 20.0495 88.1667 20.1562 87.6406 20.1562C87.1042 20.1562 86.6328 20.0651 86.2266 19.8828C85.8255 19.6953 85.487 19.4271 85.2109 19.0781C84.9349 18.7292 84.7135 18.3073 84.5469 17.8125C84.3854 17.3177 84.2734 16.7604 84.2109 16.1406V15.4219C84.2734 14.7969 84.3854 14.237 84.5469 13.7422C84.7135 13.2474 84.9349 12.8255 85.2109 12.4766C85.487 12.1224 85.8255 11.8542 86.2266 11.6719C86.6276 11.4844 87.0938 11.3906 87.625 11.3906C88.1562 11.3906 88.6276 11.4948 89.0391 11.7031C89.4505 11.9062 89.7943 12.1979 90.0703 12.5781C90.3516 12.9583 90.5651 13.4141 90.7109 13.9453C90.8568 14.4714 90.9297 15.0573 90.9297 15.7031ZM89.4766 15.8672V15.7031C89.4766 15.2812 89.4375 14.8854 89.3594 14.5156C89.2812 14.1406 89.1562 13.8125 88.9844 13.5312C88.8125 13.2448 88.5859 13.0208 88.3047 12.8594C88.0234 12.6927 87.6771 12.6094 87.2656 12.6094C86.901 12.6094 86.5833 12.6719 86.3125 12.7969C86.0469 12.9219 85.8203 13.0911 85.6328 13.3047C85.4453 13.513 85.2917 13.7526 85.1719 14.0234C85.0573 14.2891 84.9714 14.5651 84.9141 14.8516V16.7344C84.9974 17.099 85.1328 17.4505 85.3203 17.7891C85.513 18.1224 85.7682 18.3958 86.0859 18.6094C86.4089 18.8229 86.8073 18.9297 87.2812 18.9297C87.6719 18.9297 88.0052 18.8516 88.2812 18.6953C88.5625 18.5339 88.7891 18.3125 88.9609 18.0312C89.138 17.75 89.2682 17.4245 89.3516 17.0547C89.4349 16.6849 89.4766 16.2891 89.4766 15.8672ZM96.2656 20.1562C95.6771 20.1562 95.1432 20.0573 94.6641 19.8594C94.1901 19.6562 93.7812 19.3724 93.4375 19.0078C93.099 18.6432 92.8385 18.2109 92.6562 17.7109C92.474 17.2109 92.3828 16.6641 92.3828 16.0703V15.7422C92.3828 15.0547 92.4844 14.4427 92.6875 13.9062C92.8906 13.3646 93.1667 12.9062 93.5156 12.5312C93.8646 12.1562 94.2604 11.8724 94.7031 11.6797C95.1458 11.487 95.6042 11.3906 96.0781 11.3906C96.6823 11.3906 97.2031 11.4948 97.6406 11.7031C98.0833 11.9115 98.4453 12.2031 98.7266 12.5781C99.0078 12.9479 99.2161 13.3854 99.3516 13.8906C99.487 14.3906 99.5547 14.9375 99.5547 15.5312V16.1797H93.2422V15H98.1094V14.8906C98.0885 14.5156 98.0104 14.151 97.875 13.7969C97.7448 13.4427 97.5365 13.151 97.25 12.9219C96.9635 12.6927 96.5729 12.5781 96.0781 12.5781C95.75 12.5781 95.4479 12.6484 95.1719 12.7891C94.8958 12.9245 94.6589 13.1276 94.4609 13.3984C94.263 13.6693 94.1094 14 94 14.3906C93.8906 14.7812 93.8359 15.2318 93.8359 15.7422V16.0703C93.8359 16.4714 93.8906 16.849 94 17.2031C94.1146 17.5521 94.2786 17.8594 94.4922 18.125C94.7109 18.3906 94.974 18.599 95.2812 18.75C95.5938 18.901 95.9479 18.9766 96.3438 18.9766C96.8542 18.9766 97.2865 18.8724 97.6406 18.6641C97.9948 18.4557 98.3047 18.1771 98.5703 17.8281L99.4453 18.5234C99.263 18.7995 99.0312 19.0625 98.75 19.3125C98.4688 19.5625 98.1224 19.7656 97.7109 19.9219C97.3047 20.0781 96.8229 20.1562 96.2656 20.1562Z" fill="white"/>
<path fill-rule="evenodd" clip-rule="evenodd" d="M16.0062 11.7728L11.4938 9.51719C11.4938 9.51719 10.2404 8.94726 10.2404 10.0186V15.031C10.2404 15.031 10.2636 15.7955 11.4938 15.2815C12.3498 14.9237 16.0062 13.0258 16.0062 13.0258C16.0062 13.0258 16.9391 12.4282 16.0062 11.7728ZM21.5213 16.7852C20.9624 18.3749 19.7669 18.5797 18.7637 18.7901C17.2852 19.1002 7.77237 19.0612 6.22922 18.5394C5.26706 18.2141 4.67503 18.0741 4.22386 15.7827C3.93499 14.3165 3.91592 10.003 4.22386 8.51494C4.52204 7.07408 5.27096 6.39753 6.73067 6.25928C10.6515 5.88785 17.205 5.94029 19.265 6.25928C21.1748 6.55486 21.5739 7.69385 21.772 8.76545C22.0927 10.5004 22.1304 15.0524 21.5213 16.7852Z" fill="white"/>
</svg>
